<?xml version="1.0" standalone="no"?>
<!DOCTYPE svg PUBLIC "-//W3C//DTD SVG 20010904//EN"
 "http://www.w3.org/TR/2001/REC-SVG-20010904/DTD/svg10.dtd">
<svg version="1.0" xmlns="http://www.w3.org/2000/svg"
 width="545.000000pt" height="520.000000pt" viewBox="0 0 545.000000 520.000000"
 preserveAspectRatio="xMidYMid meet">

<g transform="translate(0.000000,520.000000) scale(0.100000,-0.100000)"
fill="#000000" stroke="none">
<path d="M2750 5119 c-482 -45 -965 -237 -1330 -530 -540 -433 -868 -1004
-966 -1684 -21 -146 -24 -503 -6 -645 31 -231 97 -481 182 -682 29 -69 71
-120 87 -105 2 3 -10 33 -28 68 -91 181 -174 454 -210 694 -29 184 -31 490 -5
678 116 854 668 1597 1439 1939 518 229 1039 275 1582 138 296 -75 632 -242
879 -438 181 -144 383 -368 515 -572 75 -116 187 -341 235 -471 233 -635 200
-1324 -90 -1929 -167 -346 -381 -620 -679 -866 -319 -264 -749 -452 -1188
-520 -139 -22 -498 -25 -632 -6 -296 43 -524 114 -779 244 -210 108 -452 282
-581 420 -78 82 -250 287 -281 332 -13 19 -55 53 -92 75 -275 164 -582 106
-674 -128 -17 -44 -22 -77 -22 -156 -1 -92 2 -105 30 -165 17 -36 46 -83 65
-105 44 -49 139 -95 200 -95 136 0 249 86 249 190 0 26 -35 148 -45 159 -2 2
-23 -13 -46 -33 -84 -72 -175 -95 -252 -63 -45 19 -105 89 -113 132 -18 98 26
198 111 250 44 27 56 30 134 30 101 -1 168 -25 282 -102 105 -70 190 -161 276
-298 195 -308 340 -449 576 -560 118 -56 194 -75 336 -84 89 -6 132 -14 186
-35 105 -41 314 -92 460 -112 178 -25 524 -25 685 0 395 61 717 186 1055 411
518 344 892 875 1050 1491 169 656 73 1354 -264 1924 -155 262 -398 538 -627
712 -489 372 -1108 553 -1704 497z"/>
<path d="M2888 3799 c-49 -28 -88 -54 -88 -57 1 -8 373 -221 378 -217 7 6
-183 325 -193 325 -5 0 -49 -23 -97 -51z"/>
<path d="M2652 3663 c-51 -31 -92 -57 -90 -58 2 -1 181 -105 398 -230 217
-125 410 -236 429 -248 19 -11 32 -17 29 -11 -133 235 -197 339 -217 353 -45
31 -438 251 -447 250 -5 -1 -51 -26 -102 -56z"/>
<path d="M2540 3066 l0 -517 28 15 c49 25 847 488 855 496 5 4 -178 115 -405
246 -227 130 -428 246 -445 257 l-33 19 0 -516z m342 63 c59 -33 108 -62 108
-64 0 -2 -35 -23 -77 -48 -43 -25 -95 -55 -115 -67 l-38 -22 0 131 c0 72 3
131 7 131 3 0 55 -27 115 -61z"/>
<path d="M2790 3065 c0 -41 3 -75 7 -75 8 0 133 70 133 75 0 4 -126 75 -134
75 -3 0 -6 -34 -6 -75z"/>
<path d="M2408 3370 l-98 -169 0 -269 0 -270 98 -56 97 -56 3 251 c1 138 1
360 0 494 l-3 245 -97 -170z"/>
<path d="M2264 3119 c-21 -26 -186 -320 -183 -323 16 -15 191 -108 195 -104 2
3 3 103 2 223 -2 160 -6 214 -14 204z"/>
<path d="M3018 2787 c-230 -133 -418 -245 -418 -249 0 -5 86 -8 192 -8 l192 0
233 137 233 137 0 113 c0 62 -3 113 -7 112 -5 0 -196 -110 -425 -242z"/>
<path d="M3253 2652 c-100 -59 -183 -110 -183 -114 0 -5 86 -8 190 -8 l190 0
0 115 c0 63 -3 115 -7 114 -5 0 -90 -48 -190 -107z"/>
<path d="M1071 2091 c-12 -8 -15 -62 -15 -318 l-1 -308 35 0 35 0 6 121 c11
206 52 330 139 418 l28 29 13 -24 c10 -17 15 -75 16 -209 2 -204 5 -214 60
-194 27 9 28 12 35 99 13 184 107 377 144 298 5 -10 10 -143 12 -295 3 -261 4
-277 22 -283 11 -3 28 -2 38 4 17 9 19 29 26 249 8 298 -2 356 -66 383 -49 20
-114 3 -157 -41 l-38 -39 -15 33 c-36 74 -124 72 -200 -3 l-48 -48 0 62 c0 48
-4 64 -16 69 -21 8 -36 7 -53 -3z"/>
<path d="M2355 2088 c-103 -57 -159 -218 -105 -305 41 -68 157 -90 233 -45 21
12 40 22 43 22 8 0 -6 -161 -17 -197 -14 -45 -53 -83 -85 -83 -19 0 -39 13
-65 40 -38 39 -69 49 -97 31 -20 -12 28 -64 84 -91 35 -17 57 -21 100 -18 66
6 100 28 134 89 24 43 25 52 31 279 3 129 1 243 -3 253 -7 13 -19 17 -46 16
-20 -2 -47 3 -59 9 -27 15 -121 15 -148 0z m141 -83 c30 -69 30 -87 0 -151
-29 -62 -67 -94 -112 -94 -28 0 -38 6 -54 33 -25 40 -25 83 -1 147 31 82 65
120 107 120 33 0 37 -3 60 -55z"/>
<path d="M3361 2089 c-165 -9 -191 -13 -174 -30 7 -7 62 -10 147 -10 l137 2
-17 -33 c-9 -18 -46 -78 -82 -133 -113 -174 -223 -400 -205 -419 11 -11 50 -6
88 10 22 9 88 19 156 23 65 4 121 10 125 13 26 26 -90 37 -213 19 -41 -6 -53
-4 -53 6 0 25 79 171 179 331 122 195 130 210 110 223 -8 5 -21 8 -29 7 -8 0
-84 -5 -169 -9z"/>
<path d="M3617 2082 c-26 -28 -21 -69 9 -88 33 -22 75 -9 88 28 21 59 -56 106
-97 60z"/>
<path d="M1925 2080 c-78 -17 -167 -89 -184 -148 -8 -27 -7 -34 10 -43 31 -16
57 -1 77 44 21 47 70 94 110 104 33 8 71 -13 94 -54 17 -28 53 -171 46 -179
-2 -1 -23 1 -46 7 -77 17 -169 -20 -209 -85 -44 -74 -54 -141 -28 -202 26 -63
125 -91 215 -59 53 19 50 19 50 -9 0 -27 40 -41 65 -22 24 18 37 147 33 310
-4 125 -8 161 -27 208 -24 62 -74 114 -119 123 -50 11 -57 11 -87 5z m96 -310
c77 -42 57 -214 -31 -261 -47 -26 -72 -24 -100 6 -36 38 -34 113 5 183 38 70
82 95 126 72z"/>
<path d="M2857 2075 c-84 -21 -160 -89 -173 -153 -5 -24 -2 -30 15 -35 36 -9
60 4 71 38 14 43 75 102 112 111 40 8 70 -9 96 -55 20 -35 50 -166 41 -176 -3
-2 -21 0 -40 5 -45 13 -112 3 -151 -24 -71 -47 -116 -153 -98 -230 11 -51 42
-81 97 -97 44 -12 85 -8 159 16 19 6 21 3 17 -18 -4 -19 0 -25 19 -29 34 -6
56 1 62 20 11 37 26 191 26 267 -2 270 -93 401 -253 360z m123 -323 c38 -38
46 -88 26 -150 -32 -96 -118 -140 -171 -87 -20 19 -25 34 -25 72 0 87 68 193
122 193 11 0 32 -13 48 -28z"/>
<path d="M3920 2077 c-24 -8 -41 -24 -57 -51 -22 -40 -43 -135 -43 -194 0 -26
-4 -31 -27 -34 -22 -2 -28 -8 -28 -28 0 -20 6 -26 28 -28 25 -3 27 -7 27 -45
0 -63 21 -219 32 -240 7 -13 19 -17 41 -15 29 3 32 6 30 33 -1 17 -5 83 -9
147 l-7 117 34 3 c29 2 34 7 34 28 0 21 -5 26 -32 28 -33 3 -33 4 -33 55 1 64
16 134 37 166 l16 25 19 -24 c18 -23 69 -32 85 -16 17 17 -41 70 -87 79 -14 3
-41 0 -60 -6z"/>
<path d="M4139 2052 c-31 -6 -39 -124 -15 -223 26 -114 93 -165 206 -157 l66
5 -8 -63 c-9 -78 -29 -119 -71 -144 -41 -25 -58 -25 -91 1 -23 18 -27 28 -24
62 3 37 0 41 -24 48 -88 24 -78 -119 12 -155 100 -40 217 2 262 94 20 41 23
63 26 262 3 119 1 229 -2 243 -6 23 -11 26 -44 23 l-37 -3 3 -105 c4 -110 -10
-173 -45 -212 -37 -41 -108 -6 -140 69 -11 28 -15 68 -14 144 1 103 1 107 -21
111 -13 2 -30 2 -39 0z"/>
<path d="M3625 1898 c-3 -7 -4 -108 -3 -223 l3 -210 40 0 40 0 3 65 c1 36 -1
135 -5 220 l-8 155 -33 3 c-20 2 -34 -2 -37 -10z"/>
</g>
</svg>
