<?xml version="1.0" standalone="no"?>
<!DOCTYPE svg PUBLIC "-//W3C//DTD SVG 20010904//EN"
 "http://www.w3.org/TR/2001/REC-SVG-20010904/DTD/svg10.dtd">
<svg version="1.0" xmlns="http://www.w3.org/2000/svg"
 width="1073.000000pt" height="715.000000pt" viewBox="0 0 1073.000000 715.000000"
 preserveAspectRatio="xMidYMid meet">

<g transform="translate(0.000000,715.000000) scale(0.100000,-0.100000)"
fill="#000000" stroke="none">
<path d="M0 3575 l0 -3575 5365 0 5365 0 0 3575 0 3575 -5365 0 -5365 0 0
-3575z m6394 2178 c46 -46 61 -118 60 -298 0 -167 -9 -268 -50 -550 -109 -753
-219 -1237 -465 -2060 -50 -165 -96 -306 -104 -314 -19 -19 -38 -3 -32 28 2
14 63 258 135 541 210 831 290 1225 396 1945 49 338 60 579 27 619 -79 95
-481 -267 -880 -794 -176 -233 -446 -626 -650 -948 -146 -229 -200 -285 -247
-254 -44 29 -47 161 -9 452 34 263 85 812 92 990 12 303 -37 358 -182 208 -92
-95 -160 -199 -250 -383 -88 -179 -134 -302 -180 -478 -135 -515 -170 -973
-85 -1124 35 -61 37 -73 12 -73 -35 0 -75 58 -99 145 -20 72 -28 347 -14 491
42 422 136 749 316 1104 187 366 379 547 468 440 39 -45 58 -119 66 -247 12
-206 -12 -524 -70 -943 -50 -364 -59 -510 -31 -510 4 0 57 82 117 183 350 581
812 1200 1164 1560 69 71 155 152 189 179 144 115 250 147 306 91z m-1838
-3574 c77 -14 147 -52 195 -108 21 -24 39 -47 39 -52 0 -4 -20 -18 -43 -32
l-44 -24 -33 40 c-56 67 -156 98 -254 77 -72 -15 -124 -54 -161 -121 -27 -49
-30 -63 -30 -144 0 -77 4 -98 27 -147 45 -96 145 -147 263 -135 92 9 165 66
189 146 l13 46 -118 3 -119 3 0 44 0 45 170 0 170 0 0 -191 0 -190 -42 3 -43
3 -3 52 -3 53 -41 -40 c-59 -57 -117 -73 -236 -68 -114 5 -165 25 -231 91 -54
53 -86 116 -101 198 -39 211 78 404 270 445 71 16 94 16 166 3z m-2156 -274
c57 -151 105 -274 106 -272 1 1 46 117 99 257 53 140 101 263 106 273 8 13 23
17 75 17 43 0 66 -4 69 -12 4 -13 55 -660 55 -704 0 -22 -4 -24 -49 -24 l-49
0 -6 38 c-3 20 -13 138 -22 262 -9 124 -19 236 -23 249 -5 18 -31 -41 -115
-263 l-109 -286 -32 0 -31 0 -110 289 c-60 159 -110 288 -111 287 -2 -1 -12
-121 -23 -267 -12 -145 -23 -274 -26 -286 -4 -20 -11 -23 -54 -23 -41 0 -50 3
-50 18 0 35 51 698 55 710 3 8 27 12 73 12 l68 0 104 -275z m1318 -82 c73
-197 132 -364 132 -371 0 -9 -14 -12 -52 -10 l-53 3 -29 83 -28 82 -163 0
-163 0 -30 -82 -30 -83 -57 -3 c-52 -3 -57 -1 -50 15 7 18 238 642 257 696 9
26 13 27 72 27 l63 0 131 -357z m1792 300 c12 -32 71 -193 132 -358 61 -165
113 -306 116 -313 3 -10 -9 -12 -53 -10 -58 3 -58 3 -72 43 -7 22 -20 59 -29
83 l-16 42 -162 0 -162 0 -30 -82 -29 -83 -53 -3 c-36 -2 -52 1 -52 9 0 7 59
173 132 371 l132 358 62 0 63 0 21 -57z m1028 12 c2 -38 -10 -56 -197 -315
l-200 -275 205 -3 204 -2 0 -50 0 -50 -272 2 -273 3 -3 37 c-3 35 12 58 198
315 l202 278 -196 3 -196 2 0 50 0 50 263 -2 262 -3 3 -40z m442 -325 l0 -370
-55 0 -55 0 0 370 0 370 55 0 55 0 0 -370z m790 320 l0 -50 -145 0 -145 0 0
-110 0 -109 128 -3 127 -3 3 -47 3 -48 -130 0 -131 0 0 -160 0 -160 -55 0 -55
0 0 370 0 370 200 0 200 0 0 -50z m432 -85 c44 -71 82 -136 87 -143 5 -9 36
35 95 132 l87 146 60 0 c45 0 58 -3 53 -12 -4 -7 -58 -95 -120 -194 l-114
-181 0 -177 0 -176 -55 0 -55 0 0 177 0 177 -107 171 c-58 93 -113 180 -121
193 l-15 23 64 -3 63 -3 78 -130z"/>
<path d="M3465 1898 c-32 -90 -60 -169 -63 -175 -3 -10 26 -13 123 -13 117 0
127 1 120 18 -4 9 -31 86 -61 171 -30 85 -56 156 -58 158 -2 2 -29 -70 -61
-159z"/>
<path d="M5363 1887 l-61 -172 120 -3 c67 -1 122 -1 125 1 3 4 -102 309 -116
334 -4 7 -34 -65 -68 -160z"/>
</g>
</svg>
